<svg version="1.2" xmlns="http://www.w3.org/2000/svg" viewBox="0 0 1024 1024" width="1024" height="1024">
	<title>point interrogation-svg</title>
	<style>
		.s0 { fill: #fefefe } 
	</style>
	<g id="Layer">
	</g>
	<path id="Layer" class="s0" d="m541.1 267.1c35.1 4.5 67.8 19.9 94.2 43.3q41.2 36.6 53.9 89.6 2.4 10 3.1 19.7c1.4 19.7 0.6 41.3-5.4 60.8-9.6 31.7-26.8 58.5-52.7 79.2q-3.8 3.1-14.2 10c-12.8 8.4-26.3 16.4-39.6 24.5-11.9 7.2-26.2 16.6-39.7 24.3-3.9 2.3-9.2 6.1-13.7 8.8q-30.8 18.6-61.4 37.7-0.2 0.2-0.5 0.3-0.3 0-0.7 0-0.3 0-0.6-0.2-0.2-0.1-0.5-0.4-0.8-0.8-0.9-2.2-0.6-22 0.7-44c0.3-5.7 0.9-10.9 2.5-16.5 3.1-10.7 4.8-18.9 9.2-27.1 2.6-5 5.2-11.5 9.1-16.5 4.6-5.8 9.2-12.2 14.2-17.2 11.4-11.6 24.5-19.3 37.2-27.5 19.6-12.5 38.7-22.7 51.6-43 3.7-5.7 5.2-11.6 7.4-17.6 3.7-10.1 3.6-22.5 1.9-32.9-5.7-34.7-37.4-63.1-72.7-64.6-39.9-1.6-76.2 25.9-81.9 65.8-1.5 10.1-0.9 23.8-1 35.5q-0.1 11.9-1.5 18.1c-5.5 24.5-23.6 41.8-49.8 38.4-23-3-36.8-23-41-44.7-5.5-28.2-3.2-54.3 3.4-81.2 1.1-4.4 3.9-9 5.3-12.7q1.1-3 2.3-6c1.8-4.8 4.6-9.2 7-13.8q2.2-4.2 5.1-8.1c7.1-9.9 14.3-19.9 23.1-28.3 18.5-17.6 38.3-32.2 62.5-41.1 5.6-2.1 11.6-4.6 17.1-6 21.3-5.8 45.5-7.2 67-4.4z"/>
	<path id="Layer" class="s0" d="m548.2 678.6c8.2 4.9 16.4 12.4 21 20.7 23.5 42.1-7.6 91-55.7 86.4-22.1-2.1-39.1-15.4-47.6-35.5-5-12-4.9-25.9-2.5-38.5 0.9-4.9 3.9-8.7 6.2-12.9 2.5-4.7 6.9-9.6 10.1-12.3 19.2-16.4 46.3-21.4 68.5-7.9z"/>
</svg>